HIERARCHY
ROOT Hips
{
	OFFSET 0.000000 100.481300 0.000000
	CHANNELS 6 Xposition Yposition Zposition Xrotation Yrotation Zrotation 
	JOINT Spine
	{
		OFFSET -0.279200 12.230698 -2.892100
		CHANNELS 3 Xrotation Yrotation Zrotation
		JOINT Spine1
		{
			OFFSET -0.232667 10.192268 -1.242267
			CHANNELS 3 Xrotation Yrotation Zrotation
			JOINT Spine1_split
			{
				OFFSET -0.232667 10.192268 -1.242267
				CHANNELS 3 Xrotation Yrotation Zrotation
				JOINT Spine2
				{
					OFFSET -0.232667 10.192268 -1.242267
					CHANNELS 3 Xrotation Yrotation Zrotation
					JOINT Neck
					{
						OFFSET -0.418800 17.814194 8.416900
						CHANNELS 3 Xrotation Yrotation Zrotation
						JOINT Head
						{
							OFFSET 0.000000 7.031097 3.806800
							CHANNELS 3 Xrotation Yrotation Zrotation
							JOINT HeadTop_End
							{
								OFFSET 0.000000 24.646606 12.978600
								CHANNELS 3 Xrotation Yrotation Zrotation
								End Site
								{
									OFFSET 0.000000 0.000000 0.000000
								}
							}
						}
					}
					JOINT LeftShoulder
					{
						OFFSET 8.476499 7.247704 -3.868750
						CHANNELS 3 Xrotation Yrotation Zrotation
						JOINT LeftShoulder_split
						{
							OFFSET 8.476499 7.247704 -3.868750
							CHANNELS 3 Xrotation Yrotation Zrotation
							JOINT LeftArm
							{
								OFFSET 9.308998 -2.777710 0.208600
								CHANNELS 3 Xrotation Yrotation Zrotation
								JOINT LeftForeArm
								{
									OFFSET 29.972298 0.000000 0.000000
									CHANNELS 3 Xrotation Yrotation Zrotation
									JOINT LeftHand
									{
										OFFSET 26.026505 0.000000 0.000000
										CHANNELS 3 Xrotation Yrotation Zrotation
										JOINT LeftHandThumb1
										{
											OFFSET 12.240501 -7.147949 9.207150
											CHANNELS 3 Xrotation Yrotation Zrotation
											JOINT LeftHandThumb2
											{
												OFFSET 4.138618 -2.389435 2.389433
												CHANNELS 3 Xrotation Yrotation Zrotation
												JOINT LeftHandThumb3
												{
													OFFSET 2.726913 -1.574387 1.574386
													CHANNELS 3 Xrotation Yrotation Zrotation
													JOINT LeftHandThumb4
													{
														OFFSET 3.941010 -2.275345 2.275342
														CHANNELS 3 Xrotation Yrotation Zrotation
														End Site
														{
															OFFSET 0.000000 0.000000 0.000000
														}
													}
												}
											}
										}
										JOINT LeftHandIndex1
										{
											OFFSET 24.424698 -1.985611 5.953459
											CHANNELS 3 Xrotation Yrotation Zrotation
											JOINT LeftHandIndex2
											{
												OFFSET 6.426697 0.000000 0.000000
												CHANNELS 3 Xrotation Yrotation Zrotation
												JOINT LeftHandIndex3
												{
													OFFSET 5.337898 0.000000 0.000000
													CHANNELS 3 Xrotation Yrotation Zrotation
													JOINT LeftHandIndex4
													{
														OFFSET 4.409401 0.000000 0.000000
														CHANNELS 3 Xrotation Yrotation Zrotation
														End Site
														{
															OFFSET 0.000000 0.000000 0.000000
														}
													}
												}
											}
										}
										JOINT LeftHandMiddle1
										{
											OFFSET 23.810104 0.000000 0.000000
											CHANNELS 3 Xrotation Yrotation Zrotation
											JOINT LeftHandMiddle2
											{
												OFFSET 7.176498 0.000000 0.000000
												CHANNELS 3 Xrotation Yrotation Zrotation
												JOINT LeftHandMiddle3
												{
													OFFSET 6.774902 0.000000 0.000000
													CHANNELS 3 Xrotation Yrotation Zrotation
													JOINT LeftHandMiddle4
													{
														OFFSET 5.403328 0.000000 0.000000
														CHANNELS 3 Xrotation Yrotation Zrotation
														End Site
														{
															OFFSET 0.000000 0.000000 0.000000
														}
													}
												}
											}
										}
										JOINT LeftHandRing1
										{
											OFFSET 22.908401 -0.839279 -6.020567
											CHANNELS 3 Xrotation Yrotation Zrotation
											JOINT LeftHandRing2
											{
												OFFSET 6.337502 0.000000 0.000000
												CHANNELS 3 Xrotation Yrotation Zrotation
												JOINT LeftHandRing3
												{
													OFFSET 5.779297 0.000000 0.000000
													CHANNELS 3 Xrotation Yrotation Zrotation
													JOINT LeftHandRing4
													{
														OFFSET 4.965698 0.000000 0.000000
														CHANNELS 3 Xrotation Yrotation Zrotation
														End Site
														{
															OFFSET 0.000000 0.000000 0.000000
														}
													}
												}
											}
										}
										JOINT LeftHandPinky1
										{
											OFFSET 20.037003 -1.530319 -10.950146
											CHANNELS 3 Xrotation Yrotation Zrotation
											JOINT LeftHandPinky2
											{
												OFFSET 5.254700 0.000000 0.000000
												CHANNELS 3 Xrotation Yrotation Zrotation
												JOINT LeftHandPinky3
												{
													OFFSET 4.810204 0.000000 0.000000
													CHANNELS 3 Xrotation Yrotation Zrotation
													JOINT LeftHandPinky4
													{
														OFFSET 3.647202 0.000000 0.000000
														CHANNELS 3 Xrotation Yrotation Zrotation
														End Site
														{
															OFFSET 0.000000 0.000000 0.000000
														}
													}
												}
											}
										}
									}
								}
							}
						}
					}
					JOINT RightShoulder
					{
						OFFSET -7.570500 7.247704 -3.868750
						CHANNELS 3 Xrotation Yrotation Zrotation
						JOINT RightShoulder_split
						{
							OFFSET -7.570500 7.247704 -3.868750
							CHANNELS 3 Xrotation Yrotation Zrotation
							JOINT RightArm
							{
								OFFSET -9.308998 -2.777710 0.208500
								CHANNELS 3 Xrotation Yrotation Zrotation
								JOINT RightForeArm
								{
									OFFSET -29.972300 0.000000 0.000000
									CHANNELS 3 Xrotation Yrotation Zrotation
									JOINT RightHand
									{
										OFFSET -26.026505 0.000000 0.000000
										CHANNELS 3 Xrotation Yrotation Zrotation
										JOINT RightHandThumb1
										{
											OFFSET -12.240601 -7.148026 9.207092
											CHANNELS 3 Xrotation Yrotation Zrotation
											JOINT RightHandThumb2
											{
												OFFSET -4.138618 -2.389435 2.389433
												CHANNELS 3 Xrotation Yrotation Zrotation
												JOINT RightHandThumb3
												{
													OFFSET -2.726974 -1.574417 1.574421
													CHANNELS 3 Xrotation Yrotation Zrotation
													JOINT RightHandThumb4
													{
														OFFSET -3.941010 -2.275345 2.275343
														CHANNELS 3 Xrotation Yrotation Zrotation
														End Site
														{
															OFFSET 0.000000 0.000000 0.000000
														}
													}
												}
											}
										}
										JOINT RightHandIndex1
										{
											OFFSET -24.424698 -1.985657 5.953444
											CHANNELS 3 Xrotation Yrotation Zrotation
											JOINT RightHandIndex2
											{
												OFFSET -6.426697 0.000000 0.000000
												CHANNELS 3 Xrotation Yrotation Zrotation
												JOINT RightHandIndex3
												{
													OFFSET -5.337898 0.000000 0.000000
													CHANNELS 3 Xrotation Yrotation Zrotation
													JOINT RightHandIndex4
													{
														OFFSET -4.409401 0.000000 0.000000
														CHANNELS 3 Xrotation Yrotation Zrotation
														End Site
														{
															OFFSET 0.000000 0.000000 0.000000
														}
													}
												}
											}
										}
										JOINT RightHandMiddle1
										{
											OFFSET -23.810097 0.000000 0.000000
											CHANNELS 3 Xrotation Yrotation Zrotation
											JOINT RightHandMiddle2
											{
												OFFSET -7.176498 0.000000 0.000000
												CHANNELS 3 Xrotation Yrotation Zrotation
												JOINT RightHandMiddle3
												{
													OFFSET -6.774902 0.000000 0.000000
													CHANNELS 3 Xrotation Yrotation Zrotation
													JOINT RightHandMiddle4
													{
														OFFSET -5.403328 0.000000 0.000000
														CHANNELS 3 Xrotation Yrotation Zrotation
														End Site
														{
															OFFSET 0.000000 0.000000 0.000000
														}
													}
												}
											}
										}
										JOINT RightHandRing1
										{
											OFFSET -22.908302 -0.839325 -6.020576
											CHANNELS 3 Xrotation Yrotation Zrotation
											JOINT RightHandRing2
											{
												OFFSET -6.337502 0.000000 0.000000
												CHANNELS 3 Xrotation Yrotation Zrotation
												JOINT RightHandRing3
												{
													OFFSET -5.779297 0.000000 0.000000
													CHANNELS 3 Xrotation Yrotation Zrotation
													JOINT RightHandRing4
													{
														OFFSET -4.965698 0.000000 0.000000
														CHANNELS 3 Xrotation Yrotation Zrotation
														End Site
														{
															OFFSET 0.000000 0.000000 0.000000
														}
													}
												}
											}
										}
										JOINT RightHandPinky1
										{
											OFFSET -20.037003 -1.530334 -10.950259
											CHANNELS 3 Xrotation Yrotation Zrotation
											JOINT RightHandPinky2
											{
												OFFSET -5.254700 0.000000 0.000000
												CHANNELS 3 Xrotation Yrotation Zrotation
												JOINT RightHandPinky3
												{
													OFFSET -4.810204 0.000000 0.000000
													CHANNELS 3 Xrotation Yrotation Zrotation
													JOINT RightHandPinky4
													{
														OFFSET -3.647202 0.000000 0.000000
														CHANNELS 3 Xrotation Yrotation Zrotation
														End Site
														{
															OFFSET 0.000000 0.000000 0.000000
														}
													}
												}
											}
										}
									}
								}
							}
						}
					}
				}
			}
		}
	}
	JOINT LeftUpLeg
	{
		OFFSET 15.427100 -6.655098 0.678600
		CHANNELS 3 Xrotation Yrotation Zrotation
		JOINT LeftLeg
		{
			OFFSET 4.081073 -39.591068 13.024000
			CHANNELS 3 Xrotation Yrotation Zrotation
			JOINT LeftFoot
			{
				OFFSET -4.081074 -37.707932 -15.979700
				CHANNELS 3 Xrotation Yrotation Zrotation
				JOINT LeftToeBase
				{
					OFFSET 5.346399 -15.068900 20.645000
					CHANNELS 3 Xrotation Yrotation Zrotation
					JOINT LeftToe_End
					{
						OFFSET 2.754700 0.931300 11.300900
						CHANNELS 3 Xrotation Yrotation Zrotation
						End Site
						{
							OFFSET 0.000000 0.000000 0.000000
						}
					}
				}
			}
		}
	}
	JOINT RightUpLeg
	{
		OFFSET -15.569500 -6.655098 0.678600
		CHANNELS 3 Xrotation Yrotation Zrotation
		JOINT RightLeg
		{
			OFFSET -4.081825 -39.591045 13.023800
			CHANNELS 3 Xrotation Yrotation Zrotation
			JOINT RightFoot
			{
				OFFSET 4.081824 -37.707954 -15.979600
				CHANNELS 3 Xrotation Yrotation Zrotation
				JOINT RightToeBase
				{
					OFFSET -5.346400 -15.068900 20.645000
					CHANNELS 3 Xrotation Yrotation Zrotation
					JOINT RightToe_End
					{
						OFFSET -2.754700 0.931300 11.300900
						CHANNELS 3 Xrotation Yrotation Zrotation
						End Site
						{
							OFFSET 0.000000 0.000000 0.000000
						}
					}
				}
			}
		}
	}
}
MOTION
Frames: 4
Frame Time: 0.016667
7.420268 86.593559 -17.308460 12.693365 9.619208 -0.492665 4.492910 -1.658949 -0.082178 1.564963 -2.658697 2.901394 0.000000 0.000000 0.000000 1.574393 -2.667814 2.901703 -3.216331 0.566821 2.708977 -15.707442 0.827951 3.034337 -0.000000 0.000000 0.000000 0.124290 -1.541123 2.568617 0.000000 0.000000 0.000000 -46.523868 -11.866268 -46.983905 -0.000003 -112.648172 0.000003 -69.625760 -13.116131 -10.477694 10.871985 24.431609 7.994435 2.368881 5.209909 -0.238675 -7.180092 -0.217033 13.332266 -0.000000 0.000001 0.000001 9.213462 7.430010 -85.046497 5.044735 5.795431 -82.065372 5.234695 5.818624 -83.942731 -0.000003 0.000001 -0.000000 3.117077 7.733739 -77.810656 3.450910 5.337682 -65.744867 4.253666 5.629504 -74.130393 -0.000000 -0.000002 -0.000001 2.981566 8.002572 -85.786192 3.085031 5.157980 -61.746064 7.275103 5.675681 -104.109937 0.000004 -0.000000 -0.000002 -0.595414 11.406682 -86.448174 6.485208 5.816720 -96.232776 6.548300 5.809515 -96.855784 -0.000001 0.000001 -0.000001 -1.082555 -10.880360 5.337835 0.000000 0.000000 0.000000 -47.164929 8.617411 48.689587 0.000008 120.211179 -0.000012 -63.342204 15.367408 21.209074 3.592572 -16.454955 -11.549600 2.790456 -6.737068 -0.669430 -5.037089 -6.511787 -15.212322 -0.000001 0.000001 -0.000001 -0.566160 0.330605 80.510220 3.774807 -4.573008 79.066768 3.866194 -4.589655 80.210825 -0.000001 0.000001 -0.000000 -2.294817 -4.464807 67.849610 2.486305 -4.121250 62.190238 3.051637 -4.372228 69.813385 0.000000 0.000001 -0.000002 -2.842477 -5.033195 74.536680 2.011844 -3.834327 55.359042 5.242864 -4.620279 97.232599 0.000001 -0.000002 -0.000000 -12.727983 -6.563316 69.830228 4.358527 -4.647617 86.319296 4.391091 -4.649566 86.721054 0.000002 -0.000002 0.000001 -8.378342 14.713223 10.548875 42.048902 -3.578873 1.470960 -1.803536 2.305815 -9.926465 -36.669148 0.694269 -6.149984 0.000000 -0.000002 0.000000 -44.553881 -5.423466 -8.177482 41.716084 -2.270250 3.160022 -4.181807 2.221925 -0.478383 -5.725675 0.000009 -0.000141 -0.000000 0.000000 0.000000 
7.562928 86.021729 -19.193090 14.016540 9.641516 -1.660035 3.839675 -1.265472 1.190549 3.030185 -2.333152 2.316412 0.000000 0.000000 0.000000 3.025685 -2.337050 2.305680 -3.373866 0.744375 1.970034 -20.406066 -0.736912 4.010720 -0.000000 0.000000 0.000000 0.226640 -3.126609 5.972564 0.000000 0.000000 0.000000 -55.645517 -11.976971 -43.754513 0.000086 -110.514735 0.000080 -73.310251 -11.632539 -11.828131 10.262798 23.809193 8.306461 2.382991 5.227101 -0.226548 -7.162228 -0.193220 13.353370 -0.000002 -0.000001 -0.000001 8.714100 7.285023 -84.272097 4.989414 5.787492 -81.517147 5.172176 5.811669 -83.325733 0.000003 -0.000001 -0.000000 2.612486 7.606775 -77.289369 3.418795 5.323158 -65.399143 4.224934 5.621319 -73.837309 -0.000003 0.000001 0.000000 2.429895 7.945396 -85.449334 3.065070 5.147240 -61.523851 7.232165 5.686261 -103.676111 -0.000004 -0.000000 0.000001 -1.236668 10.924662 -86.368152 6.459700 5.819444 -95.981192 6.528155 5.811900 -96.656760 0.000001 -0.000001 -0.000000 -1.787735 -12.486582 1.915336 0.000000 0.000000 0.000000 -57.494135 10.708992 49.479933 -0.000004 115.866509 0.000017 -69.261185 14.057505 21.653306 4.492016 -16.714714 -11.255551 2.794868 -6.734289 -0.676021 -4.984108 -6.626291 -15.268073 -0.000001 0.000001 0.000001 0.329285 0.086559 80.589450 3.789503 -4.575802 79.251190 3.887134 -4.593213 80.472319 0.000002 -0.000000 -0.000000 -1.397286 -4.849270 68.072220 2.481670 -4.118812 62.125837 3.057597 -4.374429 69.891584 0.000006 0.000001 -0.000002 -2.514207 -5.055798 73.935090 1.988879 -3.818363 55.014609 5.193794 -4.626209 96.623940 -0.000000 -0.000001 -0.000001 -12.704622 -6.509663 68.593411 4.286009 -4.642394 85.423837 4.316213 -4.644693 85.796916 0.000000 0.000001 -0.000000 -16.162231 13.701558 12.200226 48.195495 -4.291810 -0.030766 6.368224 -0.944133 -3.966825 -46.390611 3.816744 -6.603355 -0.000000 0.000002 -0.000000 -45.736873 -5.398947 -6.892959 45.475017 -2.608265 2.924973 -4.517114 1.881153 -0.679895 -8.579522 -0.021999 0.452082 -0.000000 0.000000 -0.000000 
7.741601 85.174149 -20.951553 15.008270 9.391593 -2.648670 3.423615 -0.924396 2.314409 4.511544 -2.087240 1.761738 0.000000 0.000000 0.000000 4.497385 -2.087711 1.743153 -3.569847 0.950902 1.228296 -24.802203 -2.130056 5.138539 -0.000000 -0.000000 -0.000001 0.283900 -4.204905 10.156136 0.000000 0.000000 0.000000 -64.274792 -8.933958 -40.664190 0.000104 -108.101855 0.000093 -77.039507 -10.296169 -13.415693 9.409474 23.501779 8.676152 2.397570 5.244811 -0.214009 -7.143688 -0.168692 13.375313 0.000000 -0.000001 0.000005 8.148801 7.258568 -83.446928 4.952688 5.781922 -81.152695 5.126678 5.806206 -82.876143 0.000001 -0.000001 -0.000000 2.062242 7.456944 -76.699828 3.403264 5.316051 -65.231571 4.213471 5.618008 -73.720288 -0.000000 0.000001 0.000000 1.826215 7.873418 -85.043327 3.060742 5.144901 -61.475671 7.205541 5.692660 -103.407466 0.000001 -0.000000 -0.000001 -1.938305 10.498809 -86.218154 6.449994 5.820437 -95.885454 6.524547 5.812308 -96.621099 -0.000001 -0.000003 0.000001 -2.697553 -14.467633 -1.739101 0.000000 0.000000 0.000000 -67.851755 8.072147 51.708869 0.000036 110.708467 -0.000051 -75.665812 13.174080 22.239832 5.568575 -16.817329 -10.745284 2.799350 -6.731135 -0.682845 -4.929033 -6.745475 -15.326082 0.000001 0.000002 0.000000 1.693629 -0.297627 81.040645 3.833129 -4.583842 79.797414 3.938453 -4.601496 81.112738 0.000001 0.000004 -0.000001 -0.350495 -5.321336 68.847815 2.503184 -4.130088 62.424910 3.092140 -4.386885 70.343804 0.000000 0.000003 0.000005 -2.233220 -5.138381 73.955116 1.991450 -3.820177 55.053415 5.174587 -4.628402 96.385888 -0.000003 -0.000001 -0.000001 -12.916597 -6.321046 68.072138 4.244238 -4.638870 84.907557 4.273567 -4.641382 85.270178 0.000001 0.000002 -0.000002 -23.454728 12.489850 13.618983 55.632861 -4.849160 -1.022753 12.089041 -2.746967 1.906729 -44.981150 8.081627 -7.638969 0.000001 0.000001 0.000000 -46.138676 -5.362107 -5.590165 49.664331 -3.084551 2.667524 -5.748625 1.426275 -1.013133 -11.252294 -0.008769 1.059837 0.000000 -0.000000 -0.000000 
7.872461 84.039558 -22.543446 15.071584 8.972504 -3.182714 4.270655 -0.739150 2.955663 5.525774 -2.007906 1.460071 0.000000 0.000000 0.000000 5.509996 -2.001090 1.443114 -3.821976 1.179406 0.529720 -28.309546 -3.166417 6.680832 0.000000 0.000000 -0.000001 0.256382 -4.260464 17.532851 0.000000 0.000000 0.000000 -70.525077 -4.093742 -37.545092 -0.000066 -104.831389 -0.000068 -79.041066 -8.916940 -14.856350 8.253740 23.483859 9.167651 2.412678 5.263041 -0.200972 -7.124481 -0.143368 13.398060 0.000001 0.000001 0.000003 7.606494 7.261691 -82.565772 4.989918 5.787560 -81.522119 5.154214 5.809554 -83.148285 0.000002 -0.000000 -0.000000 1.559659 7.302405 -76.019363 3.452994 5.338617 -65.767106 4.271996 5.634661 -74.317082 -0.000001 -0.000001 -0.000002 1.313983 7.794547 -84.538549 3.114017 5.173391 -62.068121 7.241694 5.683947 -103.772355 -0.000003 -0.000003 0.000003 -2.493221 10.178158 -85.864951 6.496557 5.815474 -96.344756 6.576917 5.806016 -97.138582 0.000001 -0.000004 0.000003 -4.311108 -16.380945 -8.167938 0.000000 0.000000 0.000000 -75.846662 5.206704 53.753514 0.000308 104.624353 -0.000308 -76.793600 12.678092 22.126020 6.396768 -16.596214 -10.143350 2.803935 -6.727504 -0.690002 -4.871937 -6.869330 -15.386195 0.000001 -0.000000 0.000000 3.111528 -0.689705 81.602982 3.886277 -4.593058 80.461848 3.999525 -4.610607 81.873334 0.000000 -0.000003 0.000001 0.498741 -5.717455 70.203785 2.541276 -4.149710 62.952597 3.142790 -4.404598 71.004680 0.000001 -0.000000 0.000001 -2.066106 -5.239508 74.468186 2.014216 -3.835959 55.394344 5.179202 -4.627874 96.443159 0.000000 0.000000 -0.000001 -13.284492 -6.125456 68.253773 4.233992 -4.637958 84.780686 4.263753 -4.640542 85.148881 0.000000 -0.000002 -0.000003 -29.674501 10.593999 15.677284 66.935430 -3.477514 -1.081131 10.039804 -2.599845 4.809517 -8.256978 2.274837 -10.972462 0.000001 -0.000001 0.000000 -45.046283 -5.162687 -4.474151 53.290625 -3.574127 2.205016 -8.547809 0.728362 -0.915950 -16.446925 -0.000001 -0.000001 0.000000 0.000000 0.000000 
